<?xml version="1.0" encoding="UTF-8" standalone="no"?>
<!DOCTYPE svg PUBLIC "-//W3C//DTD SVG 1.1//EN"
 "http://www.w3.org/Graphics/SVG/1.1/DTD/svg11.dtd">
<!-- Generated by graphviz version 2.40.1 (0)
 -->
<!-- Title: snakemake_dag Pages: 1 -->
<svg width="1716pt" height="476pt"
 viewBox="0.00 0.00 1716.00 476.00" xmlns="http://www.w3.org/2000/svg" xmlns:xlink="http://www.w3.org/1999/xlink">
<g id="graph0" class="graph" transform="scale(1 1) rotate(0) translate(4 472)">
<title>snakemake_dag</title>
<polygon fill="#ffffff" stroke="transparent" points="-4,4 -4,-472 1712,-472 1712,4 -4,4"/>
<!-- 0 -->
<g id="node1" class="node">
<title>0</title>
<path fill="none" stroke="#a7d856" stroke-width="2" d="M929,-36C929,-36 857,-36 857,-36 851,-36 845,-30 845,-24 845,-24 845,-12 845,-12 845,-6 851,0 857,0 857,0 929,0 929,0 935,0 941,-6 941,-12 941,-12 941,-24 941,-24 941,-30 935,-36 929,-36"/>
<text text-anchor="middle" x="893" y="-15.5" font-family="sans" font-size="10.00" fill="#000000">make_summary</text>
</g>
<!-- 1 -->
<g id="node2" class="node">
<title>1</title>
<path fill="none" stroke="#bed856" stroke-width="2" d="M84,-180C84,-180 12,-180 12,-180 6,-180 0,-174 0,-168 0,-168 0,-156 0,-156 0,-150 6,-144 12,-144 12,-144 84,-144 84,-144 90,-144 96,-150 96,-156 96,-156 96,-168 96,-168 96,-174 90,-180 84,-180"/>
<text text-anchor="middle" x="48" y="-159.5" font-family="sans" font-size="10.00" fill="#000000">make_rulegraph</text>
</g>
<!-- 1&#45;&gt;0 -->
<g id="edge8" class="edge">
<title>1&#45;&gt;0</title>
<path fill="none" stroke="#c0c0c0" stroke-width="2" d="M35.2761,-143.6475C23.0065,-123.4904 8.7622,-91.4104 27,-72 54.6797,-42.5405 644.9147,-24.5158 834.7507,-19.4641"/>
<polygon fill="#c0c0c0" stroke="#c0c0c0" stroke-width="2" points="834.9122,-22.9612 844.8163,-19.1985 834.7274,-15.9636 834.9122,-22.9612"/>
</g>
<!-- 2 -->
<g id="node3" class="node">
<title>2</title>
<path fill="none" stroke="#56b1d8" stroke-width="2" d="M125.5,-108C125.5,-108 48.5,-108 48.5,-108 42.5,-108 36.5,-102 36.5,-96 36.5,-96 36.5,-84 36.5,-84 36.5,-78 42.5,-72 48.5,-72 48.5,-72 125.5,-72 125.5,-72 131.5,-72 137.5,-78 137.5,-84 137.5,-84 137.5,-96 137.5,-96 137.5,-102 131.5,-108 125.5,-108"/>
<text text-anchor="middle" x="87" y="-87.5" font-family="sans" font-size="10.00" fill="#000000">save_pinned_env</text>
</g>
<!-- 1&#45;&gt;2 -->
<g id="edge21" class="edge">
<title>1&#45;&gt;2</title>
<path fill="none" stroke="#c0c0c0" stroke-width="2" d="M57.8413,-143.8314C62.1957,-135.7925 67.4098,-126.1666 72.2169,-117.2918"/>
<polygon fill="#c0c0c0" stroke="#c0c0c0" stroke-width="2" points="75.3408,-118.8732 77.0261,-108.4133 69.1857,-115.5392 75.3408,-118.8732"/>
</g>
<!-- 2&#45;&gt;0 -->
<g id="edge17" class="edge">
<title>2&#45;&gt;0</title>
<path fill="none" stroke="#c0c0c0" stroke-width="2" d="M137.5225,-74.9704C142.387,-73.8375 147.2695,-72.8191 152,-72 283.0744,-49.3045 683.9631,-28.1261 834.7956,-20.7531"/>
<polygon fill="#c0c0c0" stroke="#c0c0c0" stroke-width="2" points="834.9722,-24.2488 844.7903,-20.2669 834.632,-17.257 834.9722,-24.2488"/>
</g>
<!-- 3 -->
<g id="node4" class="node">
<title>3</title>
<path fill="none" stroke="#56d863" stroke-width="2" d="M532,-252C532,-252 446,-252 446,-252 440,-252 434,-246 434,-240 434,-240 434,-228 434,-228 434,-222 440,-216 446,-216 446,-216 532,-216 532,-216 538,-216 544,-222 544,-228 544,-228 544,-240 544,-240 544,-246 538,-252 532,-252"/>
<text text-anchor="middle" x="489" y="-231.5" font-family="sans" font-size="10.00" fill="#000000">get_mut_bind_expr</text>
</g>
<!-- 3&#45;&gt;0 -->
<g id="edge12" class="edge">
<title>3&#45;&gt;0</title>
<path fill="none" stroke="#c0c0c0" stroke-width="2" d="M433.6009,-225.6433C325.8539,-207.2636 105.33,-157.9779 185,-72 206.9829,-48.2766 668.8491,-27.1545 834.5103,-20.3155"/>
<polygon fill="#c0c0c0" stroke="#c0c0c0" stroke-width="2" points="835.1378,-23.7928 844.986,-19.8858 834.8509,-16.7987 835.1378,-23.7928"/>
</g>
<!-- 5 -->
<g id="node6" class="node">
<title>5</title>
<path fill="none" stroke="#d8b456" stroke-width="2" d="M531.5,-108C531.5,-108 388.5,-108 388.5,-108 382.5,-108 376.5,-102 376.5,-96 376.5,-96 376.5,-84 376.5,-84 376.5,-78 382.5,-72 388.5,-72 388.5,-72 531.5,-72 531.5,-72 537.5,-72 543.5,-78 543.5,-84 543.5,-84 543.5,-96 543.5,-96 543.5,-102 537.5,-108 531.5,-108"/>
<text text-anchor="middle" x="460" y="-87.5" font-family="sans" font-size="10.00" fill="#000000">bind_expr_filters_Wuhan_Hu_1</text>
</g>
<!-- 3&#45;&gt;5 -->
<g id="edge22" class="edge">
<title>3&#45;&gt;5</title>
<path fill="none" stroke="#c0c0c0" stroke-width="2" d="M442.5246,-215.9715C427.121,-207.5066 411.7009,-195.7373 403,-180 395.2583,-165.9976 396.6779,-158.698 403,-144 407.7491,-132.9589 415.9885,-123.1176 424.7506,-114.9593"/>
<polygon fill="#c0c0c0" stroke="#c0c0c0" stroke-width="2" points="427.245,-117.4291 432.5106,-108.2354 422.661,-112.1388 427.245,-117.4291"/>
</g>
<!-- 6 -->
<g id="node7" class="node">
<title>6</title>
<path fill="none" stroke="#78d856" stroke-width="2" d="M569.5,-180C569.5,-180 424.5,-180 424.5,-180 418.5,-180 412.5,-174 412.5,-168 412.5,-168 412.5,-156 412.5,-156 412.5,-150 418.5,-144 424.5,-144 424.5,-144 569.5,-144 569.5,-144 575.5,-144 581.5,-150 581.5,-156 581.5,-156 581.5,-168 581.5,-168 581.5,-174 575.5,-180 569.5,-180"/>
<text text-anchor="middle" x="497" y="-159.5" font-family="sans" font-size="10.00" fill="#000000">bind_expr_filters_Omicron_BA2</text>
</g>
<!-- 3&#45;&gt;6 -->
<g id="edge23" class="edge">
<title>3&#45;&gt;6</title>
<path fill="none" stroke="#c0c0c0" stroke-width="2" d="M491.0187,-215.8314C491.8743,-208.131 492.8917,-198.9743 493.8426,-190.4166"/>
<polygon fill="#c0c0c0" stroke="#c0c0c0" stroke-width="2" points="497.3283,-190.7386 494.9541,-180.4133 490.3711,-189.9656 497.3283,-190.7386"/>
</g>
<!-- 17 -->
<g id="node18" class="node">
<title>17</title>
<path fill="none" stroke="#5682d8" stroke-width="2" d="M787.5,-180C787.5,-180 650.5,-180 650.5,-180 644.5,-180 638.5,-174 638.5,-168 638.5,-168 638.5,-156 638.5,-156 638.5,-150 644.5,-144 650.5,-144 650.5,-144 787.5,-144 787.5,-144 793.5,-144 799.5,-150 799.5,-156 799.5,-156 799.5,-168 799.5,-168 799.5,-174 793.5,-180 787.5,-180"/>
<text text-anchor="middle" x="719" y="-159.5" font-family="sans" font-size="10.00" fill="#000000">escape_profiles_Wuhan_Hu_1</text>
</g>
<!-- 3&#45;&gt;17 -->
<g id="edge32" class="edge">
<title>3&#45;&gt;17</title>
<path fill="none" stroke="#c0c0c0" stroke-width="2" d="M544.0907,-216.7542C576.2654,-206.6821 617.1204,-193.8927 651.2527,-183.2079"/>
<polygon fill="#c0c0c0" stroke="#c0c0c0" stroke-width="2" points="652.6515,-186.4375 661.1492,-180.1098 650.5602,-179.7572 652.6515,-186.4375"/>
</g>
<!-- 18 -->
<g id="node19" class="node">
<title>18</title>
<path fill="none" stroke="#d89c56" stroke-width="2" d="M1446,-180C1446,-180 1306,-180 1306,-180 1300,-180 1294,-174 1294,-168 1294,-168 1294,-156 1294,-156 1294,-150 1300,-144 1306,-144 1306,-144 1446,-144 1446,-144 1452,-144 1458,-150 1458,-156 1458,-156 1458,-168 1458,-168 1458,-174 1452,-180 1446,-180"/>
<text text-anchor="middle" x="1376" y="-159.5" font-family="sans" font-size="10.00" fill="#000000">escape_profiles_Omicron_BA2</text>
</g>
<!-- 3&#45;&gt;18 -->
<g id="edge35" class="edge">
<title>3&#45;&gt;18</title>
<path fill="none" stroke="#c0c0c0" stroke-width="2" d="M544.1657,-226.2473C570.1673,-222.7755 601.6384,-218.8347 630,-216 754.2481,-203.5817 1112.8423,-179.3453 1283.5519,-168.0563"/>
<polygon fill="#c0c0c0" stroke="#c0c0c0" stroke-width="2" points="1284.0276,-171.5326 1293.7751,-167.3809 1283.5661,-164.5478 1284.0276,-171.5326"/>
</g>
<!-- 4 -->
<g id="node5" class="node">
<title>4</title>
<path fill="none" stroke="#8fd856" stroke-width="2" d="M346,-108C346,-108 206,-108 206,-108 200,-108 194,-102 194,-96 194,-96 194,-84 194,-84 194,-78 200,-72 206,-72 206,-72 346,-72 346,-72 352,-72 358,-78 358,-84 358,-84 358,-96 358,-96 358,-102 352,-108 346,-108"/>
<text text-anchor="middle" x="276" y="-87.5" font-family="sans" font-size="10.00" fill="#000000">get_early2020_mut_bind_expr</text>
</g>
<!-- 4&#45;&gt;0 -->
<g id="edge9" class="edge">
<title>4&#45;&gt;0</title>
<path fill="none" stroke="#c0c0c0" stroke-width="2" d="M358.2801,-73.3687C361.2196,-72.888 364.1332,-72.4297 367,-72 536.0553,-46.6586 737.482,-29.6118 834.7366,-22.2011"/>
<polygon fill="#c0c0c0" stroke="#c0c0c0" stroke-width="2" points="835.2384,-25.6733 844.9461,-21.4295 834.7108,-18.6932 835.2384,-25.6733"/>
</g>
<!-- 5&#45;&gt;0 -->
<g id="edge5" class="edge">
<title>5&#45;&gt;0</title>
<path fill="none" stroke="#c0c0c0" stroke-width="2" d="M543.6458,-74.5103C548.5005,-73.6506 553.3121,-72.8083 558,-72 655.0479,-55.2677 768.1987,-37.3616 835.0396,-26.9496"/>
<polygon fill="#c0c0c0" stroke="#c0c0c0" stroke-width="2" points="835.6157,-30.4022 844.9588,-25.4065 834.5396,-23.4854 835.6157,-30.4022"/>
</g>
<!-- 6&#45;&gt;0 -->
<g id="edge10" class="edge">
<title>6&#45;&gt;0</title>
<path fill="none" stroke="#c0c0c0" stroke-width="2" d="M515.9521,-143.7209C541.992,-118.7711 586.6805,-76.6038 596,-72 637.062,-51.7155 760.4937,-33.9581 834.6824,-24.7322"/>
<polygon fill="#c0c0c0" stroke="#c0c0c0" stroke-width="2" points="835.3118,-28.1813 844.8103,-23.4877 834.458,-21.2336 835.3118,-28.1813"/>
</g>
<!-- 7 -->
<g id="node8" class="node">
<title>7</title>
<path fill="none" stroke="#569ad8" stroke-width="2" d="M927,-396C927,-396 739,-396 739,-396 733,-396 727,-390 727,-384 727,-384 727,-372 727,-372 727,-366 733,-360 739,-360 739,-360 927,-360 927,-360 933,-360 939,-366 939,-372 939,-372 939,-384 939,-384 939,-390 933,-396 927,-396"/>
<text text-anchor="middle" x="833" y="-375.5" font-family="sans" font-size="10.00" fill="#000000">aggregate_variant_counts_Wuhan_Hu_1</text>
</g>
<!-- 7&#45;&gt;0 -->
<g id="edge18" class="edge">
<title>7&#45;&gt;0</title>
<path fill="none" stroke="#c0c0c0" stroke-width="2" d="M769.4487,-359.9371C718.6315,-341.7511 650.8105,-308.1833 619,-252 608.7364,-233.8725 626.3176,-158.1155 630,-144 638.627,-110.9307 631.2721,-94.4961 657,-72 683.0972,-49.1809 773.5504,-33.3484 834.5867,-24.9732"/>
<polygon fill="#c0c0c0" stroke="#c0c0c0" stroke-width="2" points="835.4202,-28.3928 844.8662,-23.5946 834.4897,-21.4549 835.4202,-28.3928"/>
</g>
<!-- 11 -->
<g id="node12" class="node">
<title>11</title>
<path fill="none" stroke="#56d8d0" stroke-width="2" d="M1112,-324C1112,-324 948,-324 948,-324 942,-324 936,-318 936,-312 936,-312 936,-300 936,-300 936,-294 942,-288 948,-288 948,-288 1112,-288 1112,-288 1118,-288 1124,-294 1124,-300 1124,-300 1124,-312 1124,-312 1124,-318 1118,-324 1112,-324"/>
<text text-anchor="middle" x="1030" y="-303.5" font-family="sans" font-size="10.00" fill="#000000">counts_to_cells_ratio_Wuhan_Hu_1</text>
</g>
<!-- 7&#45;&gt;11 -->
<g id="edge26" class="edge">
<title>7&#45;&gt;11</title>
<path fill="none" stroke="#c0c0c0" stroke-width="2" d="M882.4571,-359.9243C909.2711,-350.1243 942.5949,-337.945 970.7847,-327.6422"/>
<polygon fill="#c0c0c0" stroke="#c0c0c0" stroke-width="2" points="972.3316,-330.8033 980.5225,-324.0831 969.9287,-324.2286 972.3316,-330.8033"/>
</g>
<!-- 13 -->
<g id="node14" class="node">
<title>13</title>
<path fill="none" stroke="#d86e56" stroke-width="2" d="M906,-324C906,-324 760,-324 760,-324 754,-324 748,-318 748,-312 748,-312 748,-300 748,-300 748,-294 754,-288 760,-288 760,-288 906,-288 906,-288 912,-288 918,-294 918,-300 918,-300 918,-312 918,-312 918,-318 912,-324 906,-324"/>
<text text-anchor="middle" x="833" y="-303.5" font-family="sans" font-size="10.00" fill="#000000">counts_to_scores_Wuhan_Hu_1</text>
</g>
<!-- 7&#45;&gt;13 -->
<g id="edge28" class="edge">
<title>7&#45;&gt;13</title>
<path fill="none" stroke="#c0c0c0" stroke-width="2" d="M833,-359.8314C833,-352.131 833,-342.9743 833,-334.4166"/>
<polygon fill="#c0c0c0" stroke="#c0c0c0" stroke-width="2" points="836.5001,-334.4132 833,-324.4133 829.5001,-334.4133 836.5001,-334.4132"/>
</g>
<!-- 8 -->
<g id="node9" class="node">
<title>8</title>
<path fill="none" stroke="#56c9d8" stroke-width="2" d="M900,-468C900,-468 766,-468 766,-468 760,-468 754,-462 754,-456 754,-456 754,-444 754,-444 754,-438 760,-432 766,-432 766,-432 900,-432 900,-432 906,-432 912,-438 912,-444 912,-444 912,-456 912,-456 912,-462 906,-468 900,-468"/>
<text text-anchor="middle" x="833" y="-447.5" font-family="sans" font-size="10.00" fill="#000000">count_variants_Wuhan_Hu_1</text>
</g>
<!-- 8&#45;&gt;7 -->
<g id="edge24" class="edge">
<title>8&#45;&gt;7</title>
<path fill="none" stroke="#c0c0c0" stroke-width="2" d="M833,-431.8314C833,-424.131 833,-414.9743 833,-406.4166"/>
<polygon fill="#c0c0c0" stroke="#c0c0c0" stroke-width="2" points="836.5001,-406.4132 833,-396.4133 829.5001,-406.4133 836.5001,-406.4132"/>
</g>
<!-- 9 -->
<g id="node10" class="node">
<title>9</title>
<path fill="none" stroke="#d6d856" stroke-width="2" d="M1371.5,-396C1371.5,-396 1180.5,-396 1180.5,-396 1174.5,-396 1168.5,-390 1168.5,-384 1168.5,-384 1168.5,-372 1168.5,-372 1168.5,-366 1174.5,-360 1180.5,-360 1180.5,-360 1371.5,-360 1371.5,-360 1377.5,-360 1383.5,-366 1383.5,-372 1383.5,-372 1383.5,-384 1383.5,-384 1383.5,-390 1377.5,-396 1371.5,-396"/>
<text text-anchor="middle" x="1276" y="-375.5" font-family="sans" font-size="10.00" fill="#000000">aggregate_variant_counts_Omicron_BA2</text>
</g>
<!-- 9&#45;&gt;0 -->
<g id="edge7" class="edge">
<title>9&#45;&gt;0</title>
<path fill="none" stroke="#c0c0c0" stroke-width="2" d="M1220.2083,-359.8735C1202.4225,-351.5449 1184.2115,-339.8887 1172,-324 1147.0303,-291.5112 1152,-274.9758 1152,-234 1152,-234 1152,-234 1152,-162 1152,-70.6651 1027.4454,-36.7565 951.0868,-24.5504"/>
<polygon fill="#c0c0c0" stroke="#c0c0c0" stroke-width="2" points="951.5212,-21.0763 941.1089,-23.0343 950.4697,-27.9969 951.5212,-21.0763"/>
</g>
<!-- 12 -->
<g id="node13" class="node">
<title>12</title>
<path fill="none" stroke="#56d892" stroke-width="2" d="M1359.5,-324C1359.5,-324 1192.5,-324 1192.5,-324 1186.5,-324 1180.5,-318 1180.5,-312 1180.5,-312 1180.5,-300 1180.5,-300 1180.5,-294 1186.5,-288 1192.5,-288 1192.5,-288 1359.5,-288 1359.5,-288 1365.5,-288 1371.5,-294 1371.5,-300 1371.5,-300 1371.5,-312 1371.5,-312 1371.5,-318 1365.5,-324 1359.5,-324"/>
<text text-anchor="middle" x="1276" y="-303.5" font-family="sans" font-size="10.00" fill="#000000">counts_to_cells_ratio_Omicron_BA2</text>
</g>
<!-- 9&#45;&gt;12 -->
<g id="edge27" class="edge">
<title>9&#45;&gt;12</title>
<path fill="none" stroke="#c0c0c0" stroke-width="2" d="M1276,-359.8314C1276,-352.131 1276,-342.9743 1276,-334.4166"/>
<polygon fill="#c0c0c0" stroke="#c0c0c0" stroke-width="2" points="1279.5001,-334.4132 1276,-324.4133 1272.5001,-334.4133 1279.5001,-334.4132"/>
</g>
<!-- 14 -->
<g id="node15" class="node">
<title>14</title>
<path fill="none" stroke="#56d8b9" stroke-width="2" d="M1559,-324C1559,-324 1411,-324 1411,-324 1405,-324 1399,-318 1399,-312 1399,-312 1399,-300 1399,-300 1399,-294 1405,-288 1411,-288 1411,-288 1559,-288 1559,-288 1565,-288 1571,-294 1571,-300 1571,-300 1571,-312 1571,-312 1571,-318 1565,-324 1559,-324"/>
<text text-anchor="middle" x="1485" y="-303.5" font-family="sans" font-size="10.00" fill="#000000">counts_to_scores_Omicron_BA2</text>
</g>
<!-- 9&#45;&gt;14 -->
<g id="edge29" class="edge">
<title>9&#45;&gt;14</title>
<path fill="none" stroke="#c0c0c0" stroke-width="2" d="M1328.4698,-359.9243C1357.1655,-350.0387 1392.8888,-337.7321 1422.96,-327.3726"/>
<polygon fill="#c0c0c0" stroke="#c0c0c0" stroke-width="2" points="1424.194,-330.6495 1432.5087,-324.0831 1421.9139,-324.0312 1424.194,-330.6495"/>
</g>
<!-- 10 -->
<g id="node11" class="node">
<title>10</title>
<path fill="none" stroke="#56d8a2" stroke-width="2" d="M1344,-468C1344,-468 1208,-468 1208,-468 1202,-468 1196,-462 1196,-456 1196,-456 1196,-444 1196,-444 1196,-438 1202,-432 1208,-432 1208,-432 1344,-432 1344,-432 1350,-432 1356,-438 1356,-444 1356,-444 1356,-456 1356,-456 1356,-462 1350,-468 1344,-468"/>
<text text-anchor="middle" x="1276" y="-447.5" font-family="sans" font-size="10.00" fill="#000000">count_variants_Omicron_BA2</text>
</g>
<!-- 10&#45;&gt;9 -->
<g id="edge25" class="edge">
<title>10&#45;&gt;9</title>
<path fill="none" stroke="#c0c0c0" stroke-width="2" d="M1276,-431.8314C1276,-424.131 1276,-414.9743 1276,-406.4166"/>
<polygon fill="#c0c0c0" stroke="#c0c0c0" stroke-width="2" points="1279.5001,-406.4132 1276,-396.4133 1272.5001,-406.4133 1279.5001,-406.4132"/>
</g>
<!-- 11&#45;&gt;0 -->
<g id="edge16" class="edge">
<title>11&#45;&gt;0</title>
<path fill="none" stroke="#c0c0c0" stroke-width="2" d="M1047.6127,-287.8373C1075.1378,-257.153 1122.4936,-193.5532 1095,-144 1064.4508,-88.9395 998.7254,-54.7901 950.5087,-36.1627"/>
<polygon fill="#c0c0c0" stroke="#c0c0c0" stroke-width="2" points="951.7067,-32.874 941.1144,-32.6425 949.2504,-39.4289 951.7067,-32.874"/>
</g>
<!-- 12&#45;&gt;0 -->
<g id="edge14" class="edge">
<title>12&#45;&gt;0</title>
<path fill="none" stroke="#c0c0c0" stroke-width="2" d="M1248.5124,-287.8214C1236.3105,-278.4562 1222.7593,-266.0515 1214,-252 1170.2007,-181.7381 1226.4259,-128.6023 1166,-72 1135.5429,-43.4702 1021.8727,-28.8547 951.1667,-22.3662"/>
<polygon fill="#c0c0c0" stroke="#c0c0c0" stroke-width="2" points="951.3322,-18.8672 941.0614,-21.4672 950.7118,-25.8397 951.3322,-18.8672"/>
</g>
<!-- 13&#45;&gt;0 -->
<g id="edge2" class="edge">
<title>13&#45;&gt;0</title>
<path fill="none" stroke="#c0c0c0" stroke-width="2" d="M848.8991,-287.8109C856.6287,-277.902 865.2543,-265.0273 870,-252 895.6868,-181.4873 896.342,-91.5725 894.6705,-46.4865"/>
<polygon fill="#c0c0c0" stroke="#c0c0c0" stroke-width="2" points="898.158,-46.1211 894.2224,-36.2844 891.1647,-46.4284 898.158,-46.1211"/>
</g>
<!-- 15 -->
<g id="node16" class="node">
<title>15</title>
<path fill="none" stroke="#61d856" stroke-width="2" d="M833.5,-252C833.5,-252 650.5,-252 650.5,-252 644.5,-252 638.5,-246 638.5,-240 638.5,-240 638.5,-228 638.5,-228 638.5,-222 644.5,-216 650.5,-216 650.5,-216 833.5,-216 833.5,-216 839.5,-216 845.5,-222 845.5,-228 845.5,-228 845.5,-240 845.5,-240 845.5,-246 839.5,-252 833.5,-252"/>
<text text-anchor="middle" x="742" y="-231.5" font-family="sans" font-size="10.00" fill="#000000">call_strong_escape_sites_Wuhan_Hu_1</text>
</g>
<!-- 13&#45;&gt;15 -->
<g id="edge30" class="edge">
<title>13&#45;&gt;15</title>
<path fill="none" stroke="#c0c0c0" stroke-width="2" d="M810.0369,-287.8314C798.8285,-278.9632 785.1791,-268.1637 773.0561,-258.5718"/>
<polygon fill="#c0c0c0" stroke="#c0c0c0" stroke-width="2" points="774.9697,-255.6229 764.9558,-252.1628 770.6263,-261.1125 774.9697,-255.6229"/>
</g>
<!-- 13&#45;&gt;17 -->
<g id="edge33" class="edge">
<title>13&#45;&gt;17</title>
<path fill="none" stroke="#c0c0c0" stroke-width="2" d="M747.9552,-293.9466C699.1997,-285.103 644.8087,-271.2629 630,-252 620.2483,-239.3152 622.1512,-229.9426 630,-216 637.2034,-203.2038 648.7994,-193.0907 661.2742,-185.2465"/>
<polygon fill="#c0c0c0" stroke="#c0c0c0" stroke-width="2" points="663.1189,-188.2227 670.0078,-180.1733 659.6028,-182.1698 663.1189,-188.2227"/>
</g>
<!-- 19 -->
<g id="node20" class="node">
<title>19</title>
<path fill="none" stroke="#566bd8" stroke-width="2" d="M1074,-180C1074,-180 952,-180 952,-180 946,-180 940,-174 940,-168 940,-168 940,-156 940,-156 940,-150 946,-144 952,-144 952,-144 1074,-144 1074,-144 1080,-144 1086,-150 1086,-156 1086,-156 1086,-168 1086,-168 1086,-174 1080,-180 1074,-180"/>
<text text-anchor="middle" x="1013" y="-159.5" font-family="sans" font-size="10.00" fill="#000000">output_pdbs_Wuhan_Hu_1</text>
</g>
<!-- 13&#45;&gt;19 -->
<g id="edge38" class="edge">
<title>13&#45;&gt;19</title>
<path fill="none" stroke="#c0c0c0" stroke-width="2" d="M869.3655,-287.9241C887.1802,-278.327 908.5057,-265.6957 926,-252 950.5555,-232.7763 974.9185,-206.825 991.5892,-187.7287"/>
<polygon fill="#c0c0c0" stroke="#c0c0c0" stroke-width="2" points="994.368,-189.8655 998.2409,-180.0039 989.0635,-185.2979 994.368,-189.8655"/>
</g>
<!-- 21 -->
<g id="node22" class="node">
<title>21</title>
<path fill="none" stroke="#d88556" stroke-width="2" d="M833.5,-108C833.5,-108 688.5,-108 688.5,-108 682.5,-108 676.5,-102 676.5,-96 676.5,-96 676.5,-84 676.5,-84 676.5,-78 682.5,-72 688.5,-72 688.5,-72 833.5,-72 833.5,-72 839.5,-72 845.5,-78 845.5,-84 845.5,-84 845.5,-96 845.5,-96 845.5,-102 839.5,-108 833.5,-108"/>
<text text-anchor="middle" x="761" y="-87.5" font-family="sans" font-size="10.00" fill="#000000">make_supp_data_Wuhan_Hu_1</text>
</g>
<!-- 13&#45;&gt;21 -->
<g id="edge40" class="edge">
<title>13&#45;&gt;21</title>
<path fill="none" stroke="#c0c0c0" stroke-width="2" d="M843.0059,-287.9451C851.8195,-269.6837 862.2177,-240.7033 855,-216 843.259,-175.815 811.8374,-138.5477 788.5367,-115.1301"/>
<polygon fill="#c0c0c0" stroke="#c0c0c0" stroke-width="2" points="790.8831,-112.529 781.2921,-108.0275 785.9826,-117.5275 790.8831,-112.529"/>
</g>
<!-- 14&#45;&gt;0 -->
<g id="edge15" class="edge">
<title>14&#45;&gt;0</title>
<path fill="none" stroke="#c0c0c0" stroke-width="2" d="M1398.882,-290.6959C1335.839,-278.7745 1259.3834,-262.5326 1248,-252 1186.5037,-195.0995 1254.7705,-127.4916 1192,-72 1157.0616,-41.1131 1027.7545,-27.1322 951.1005,-21.4381"/>
<polygon fill="#c0c0c0" stroke="#c0c0c0" stroke-width="2" points="951.3324,-17.9459 941.1074,-20.7205 950.831,-24.9279 951.3324,-17.9459"/>
</g>
<!-- 16 -->
<g id="node17" class="node">
<title>16</title>
<path fill="none" stroke="#d8c356" stroke-width="2" d="M1453.5,-252C1453.5,-252 1268.5,-252 1268.5,-252 1262.5,-252 1256.5,-246 1256.5,-240 1256.5,-240 1256.5,-228 1256.5,-228 1256.5,-222 1262.5,-216 1268.5,-216 1268.5,-216 1453.5,-216 1453.5,-216 1459.5,-216 1465.5,-222 1465.5,-228 1465.5,-228 1465.5,-240 1465.5,-240 1465.5,-246 1459.5,-252 1453.5,-252"/>
<text text-anchor="middle" x="1361" y="-231.5" font-family="sans" font-size="10.00" fill="#000000">call_strong_escape_sites_Omicron_BA2</text>
</g>
<!-- 14&#45;&gt;16 -->
<g id="edge31" class="edge">
<title>14&#45;&gt;16</title>
<path fill="none" stroke="#c0c0c0" stroke-width="2" d="M1453.7096,-287.8314C1437.7023,-278.5368 1418.0414,-267.1208 1400.9506,-257.1971"/>
<polygon fill="#c0c0c0" stroke="#c0c0c0" stroke-width="2" points="1402.6858,-254.1575 1392.2804,-252.1628 1399.1708,-260.211 1402.6858,-254.1575"/>
</g>
<!-- 14&#45;&gt;18 -->
<g id="edge37" class="edge">
<title>14&#45;&gt;18</title>
<path fill="none" stroke="#c0c0c0" stroke-width="2" d="M1487.6203,-287.7787C1489.4303,-268.3236 1489.367,-237.4088 1475,-216 1466.2297,-202.9311 1453.205,-192.7451 1439.4627,-184.9201"/>
<polygon fill="#c0c0c0" stroke="#c0c0c0" stroke-width="2" points="1440.8426,-181.6907 1430.366,-180.1124 1437.5717,-187.8795 1440.8426,-181.6907"/>
</g>
<!-- 20 -->
<g id="node21" class="node">
<title>20</title>
<path fill="none" stroke="#d85656" stroke-width="2" d="M1696,-252C1696,-252 1572,-252 1572,-252 1566,-252 1560,-246 1560,-240 1560,-240 1560,-228 1560,-228 1560,-222 1566,-216 1572,-216 1572,-216 1696,-216 1696,-216 1702,-216 1708,-222 1708,-228 1708,-228 1708,-240 1708,-240 1708,-246 1702,-252 1696,-252"/>
<text text-anchor="middle" x="1634" y="-231.5" font-family="sans" font-size="10.00" fill="#000000">output_pdbs_Omicron_BA2</text>
</g>
<!-- 14&#45;&gt;20 -->
<g id="edge39" class="edge">
<title>14&#45;&gt;20</title>
<path fill="none" stroke="#c0c0c0" stroke-width="2" d="M1522.599,-287.8314C1542.3497,-278.2874 1566.7297,-266.5065 1587.6417,-256.4013"/>
<polygon fill="#c0c0c0" stroke="#c0c0c0" stroke-width="2" points="1589.1903,-259.5403 1596.6714,-252.038 1586.1447,-253.2376 1589.1903,-259.5403"/>
</g>
<!-- 22 -->
<g id="node23" class="node">
<title>22</title>
<path fill="none" stroke="#56d87b" stroke-width="2" d="M1491.5,-108C1491.5,-108 1344.5,-108 1344.5,-108 1338.5,-108 1332.5,-102 1332.5,-96 1332.5,-96 1332.5,-84 1332.5,-84 1332.5,-78 1338.5,-72 1344.5,-72 1344.5,-72 1491.5,-72 1491.5,-72 1497.5,-72 1503.5,-78 1503.5,-84 1503.5,-84 1503.5,-96 1503.5,-96 1503.5,-102 1497.5,-108 1491.5,-108"/>
<text text-anchor="middle" x="1418" y="-87.5" font-family="sans" font-size="10.00" fill="#000000">make_supp_data_Omicron_BA2</text>
</g>
<!-- 14&#45;&gt;22 -->
<g id="edge42" class="edge">
<title>14&#45;&gt;22</title>
<path fill="none" stroke="#c0c0c0" stroke-width="2" d="M1490.1207,-287.9533C1494.5722,-269.6982 1499.638,-240.7226 1495,-216 1488.6692,-182.2541 1485.06,-173.201 1467,-144 1460.7802,-133.9434 1452.576,-124.0365 1444.6634,-115.5089"/>
<polygon fill="#c0c0c0" stroke="#c0c0c0" stroke-width="2" points="1446.9966,-112.8856 1437.544,-108.1004 1441.9494,-117.736 1446.9966,-112.8856"/>
</g>
<!-- 15&#45;&gt;0 -->
<g id="edge11" class="edge">
<title>15&#45;&gt;0</title>
<path fill="none" stroke="#c0c0c0" stroke-width="2" d="M768.5088,-215.7782C781.569,-206.0533 797.0383,-193.3535 809,-180 845.4583,-139.2997 870.9191,-79.9078 883.6522,-45.4847"/>
<polygon fill="#c0c0c0" stroke="#c0c0c0" stroke-width="2" points="886.95,-46.6571 887.0492,-36.0627 880.3649,-44.2828 886.95,-46.6571"/>
</g>
<!-- 15&#45;&gt;17 -->
<g id="edge34" class="edge">
<title>15&#45;&gt;17</title>
<path fill="none" stroke="#c0c0c0" stroke-width="2" d="M736.1961,-215.8314C733.7092,-208.0463 730.7469,-198.7729 727.9875,-190.1347"/>
<polygon fill="#c0c0c0" stroke="#c0c0c0" stroke-width="2" points="731.2591,-188.874 724.882,-180.4133 724.591,-191.0041 731.2591,-188.874"/>
</g>
<!-- 16&#45;&gt;0 -->
<g id="edge6" class="edge">
<title>16&#45;&gt;0</title>
<path fill="none" stroke="#c0c0c0" stroke-width="2" d="M1327.3132,-215.9803C1312.718,-206.8043 1296.4001,-194.509 1285,-180 1253.0803,-139.3753 1282.4091,-104.1922 1242,-72 1198.1209,-37.0435 1038.629,-24.4696 951.2415,-20.1412"/>
<polygon fill="#c0c0c0" stroke="#c0c0c0" stroke-width="2" points="951.367,-16.6433 941.2122,-19.6649 951.0349,-23.6354 951.367,-16.6433"/>
</g>
<!-- 16&#45;&gt;18 -->
<g id="edge36" class="edge">
<title>16&#45;&gt;18</title>
<path fill="none" stroke="#c0c0c0" stroke-width="2" d="M1364.7851,-215.8314C1366.3894,-208.131 1368.297,-198.9743 1370.0799,-190.4166"/>
<polygon fill="#c0c0c0" stroke="#c0c0c0" stroke-width="2" points="1373.5507,-190.9169 1372.1639,-180.4133 1366.6979,-189.4892 1373.5507,-190.9169"/>
</g>
<!-- 17&#45;&gt;0 -->
<g id="edge19" class="edge">
<title>17&#45;&gt;0</title>
<path fill="none" stroke="#c0c0c0" stroke-width="2" d="M696.1354,-143.7493C675.1949,-124.8192 649.9872,-94.8474 668,-72 688.4253,-46.0926 775.2607,-31.2006 834.8817,-23.8537"/>
<polygon fill="#c0c0c0" stroke="#c0c0c0" stroke-width="2" points="835.4229,-27.314 844.9377,-22.6537 834.5935,-20.3633 835.4229,-27.314"/>
</g>
<!-- 17&#45;&gt;21 -->
<g id="edge41" class="edge">
<title>17&#45;&gt;21</title>
<path fill="none" stroke="#c0c0c0" stroke-width="2" d="M729.5984,-143.8314C734.2877,-135.7925 739.9028,-126.1666 745.0798,-117.2918"/>
<polygon fill="#c0c0c0" stroke="#c0c0c0" stroke-width="2" points="748.2434,-118.8146 750.2589,-108.4133 742.1969,-115.2875 748.2434,-118.8146"/>
</g>
<!-- 18&#45;&gt;0 -->
<g id="edge4" class="edge">
<title>18&#45;&gt;0</title>
<path fill="none" stroke="#c0c0c0" stroke-width="2" d="M1359.0484,-143.6661C1336.7115,-119.9579 1298.1384,-80.6702 1280,-72 1223.0708,-44.7877 1044.526,-28.6096 951.1744,-21.7986"/>
<polygon fill="#c0c0c0" stroke="#c0c0c0" stroke-width="2" points="951.2708,-18.2966 941.046,-21.072 950.7699,-25.2786 951.2708,-18.2966"/>
</g>
<!-- 18&#45;&gt;22 -->
<g id="edge43" class="edge">
<title>18&#45;&gt;22</title>
<path fill="none" stroke="#c0c0c0" stroke-width="2" d="M1386.5984,-143.8314C1391.2877,-135.7925 1396.9028,-126.1666 1402.0798,-117.2918"/>
<polygon fill="#c0c0c0" stroke="#c0c0c0" stroke-width="2" points="1405.2434,-118.8146 1407.2589,-108.4133 1399.1969,-115.2875 1405.2434,-118.8146"/>
</g>
<!-- 19&#45;&gt;0 -->
<g id="edge20" class="edge">
<title>19&#45;&gt;0</title>
<path fill="none" stroke="#c0c0c0" stroke-width="2" d="M997.8019,-143.7623C976.7932,-118.5518 938.7586,-72.9103 914.746,-44.0952"/>
<polygon fill="#c0c0c0" stroke="#c0c0c0" stroke-width="2" points="917.1653,-41.5312 908.0747,-36.0896 911.7878,-46.0125 917.1653,-41.5312"/>
</g>
<!-- 20&#45;&gt;0 -->
<g id="edge1" class="edge">
<title>20&#45;&gt;0</title>
<path fill="none" stroke="#c0c0c0" stroke-width="2" d="M1626.6159,-215.9263C1611.308,-181.0814 1572.4997,-105.1315 1513,-72 1464.6025,-45.0506 1095.8677,-26.6249 951.0899,-20.3609"/>
<polygon fill="#c0c0c0" stroke="#c0c0c0" stroke-width="2" points="951.2012,-16.8626 941.0604,-19.931 950.9013,-23.8561 951.2012,-16.8626"/>
</g>
<!-- 21&#45;&gt;0 -->
<g id="edge3" class="edge">
<title>21&#45;&gt;0</title>
<path fill="none" stroke="#c0c0c0" stroke-width="2" d="M794.3092,-71.8314C811.4273,-62.4942 832.4706,-51.016 850.7222,-41.0606"/>
<polygon fill="#c0c0c0" stroke="#c0c0c0" stroke-width="2" points="852.5985,-44.024 859.7015,-36.1628 849.2465,-37.8788 852.5985,-44.024"/>
</g>
<!-- 22&#45;&gt;0 -->
<g id="edge13" class="edge">
<title>22&#45;&gt;0</title>
<path fill="none" stroke="#c0c0c0" stroke-width="2" d="M1332.4037,-74.2923C1327.5348,-73.4924 1322.7077,-72.7223 1318,-72 1187.3945,-51.9619 1033.3897,-33.73 951.3573,-24.4472"/>
<polygon fill="#c0c0c0" stroke="#c0c0c0" stroke-width="2" points="951.5635,-20.9484 941.2342,-23.3058 950.7791,-27.9043 951.5635,-20.9484"/>
</g>
</g>
</svg>
